<mxfile host="app.diagrams.net" modified="2021-12-09T08:31:17.055Z" agent="5.0 (Windows NT 10.0; Win64; x64) AppleWebKit/537.36 (KHTML, like Gecko) Chrome/96.0.4664.55 Safari/537.36 Edg/96.0.1054.43" etag="J2GkhzAUtKymO0K3VFb0" version="15.8.9" type="github" pages="3">
  <diagram id="e_L1ogsjQZvxkK9XZ2pH" name="UI">
    <mxGraphModel dx="1550" dy="863" grid="1" gridSize="10" guides="1" tooltips="1" connect="1" arrows="1" fold="1" page="1" pageScale="1" pageWidth="827" pageHeight="1169" math="0" shadow="0">
      <root>
        <mxCell id="0" />
        <mxCell id="1" parent="0" />
        <mxCell id="Vu7c68HnCX-WUGbhjU9a-1" value="体数据选择(CTA,t1,dwi,ct)" style="rounded=0;whiteSpace=wrap;html=1;" parent="1" vertex="1">
          <mxGeometry x="220" y="20" width="290" height="60" as="geometry" />
        </mxCell>
        <mxCell id="Vu7c68HnCX-WUGbhjU9a-2" value="" style="whiteSpace=wrap;html=1;aspect=fixed;" parent="1" vertex="1">
          <mxGeometry x="220" y="80" width="290" height="290" as="geometry" />
        </mxCell>
        <mxCell id="Vu7c68HnCX-WUGbhjU9a-3" value="" style="verticalLabelPosition=bottom;verticalAlign=top;html=1;shape=mxgraph.basic.patternFillRect;fillStyle=diag;step=5;fillStrokeWidth=0.2;fillStrokeColor=#dddddd;" parent="1" vertex="1">
          <mxGeometry x="220" y="120" width="50" height="30" as="geometry" />
        </mxCell>
        <mxCell id="Vu7c68HnCX-WUGbhjU9a-4" value="" style="verticalLabelPosition=bottom;verticalAlign=top;html=1;shape=mxgraph.basic.patternFillRect;fillStyle=diag;step=5;fillStrokeWidth=0.2;fillStrokeColor=#dddddd;" parent="1" vertex="1">
          <mxGeometry x="270" y="120" width="50" height="30" as="geometry" />
        </mxCell>
        <mxCell id="Vu7c68HnCX-WUGbhjU9a-5" value="" style="verticalLabelPosition=bottom;verticalAlign=top;html=1;shape=mxgraph.basic.patternFillRect;fillStyle=diag;step=5;fillStrokeWidth=0.2;fillStrokeColor=#dddddd;" parent="1" vertex="1">
          <mxGeometry x="320" y="120" width="50" height="30" as="geometry" />
        </mxCell>
        <mxCell id="Vu7c68HnCX-WUGbhjU9a-6" value="" style="verticalLabelPosition=bottom;verticalAlign=top;html=1;shape=mxgraph.basic.patternFillRect;fillStyle=diag;step=5;fillStrokeWidth=0.2;fillStrokeColor=#dddddd;" parent="1" vertex="1">
          <mxGeometry x="370" y="120" width="50" height="30" as="geometry" />
        </mxCell>
        <mxCell id="Vu7c68HnCX-WUGbhjU9a-7" value="" style="verticalLabelPosition=bottom;verticalAlign=top;html=1;shape=mxgraph.basic.patternFillRect;fillStyle=diag;step=5;fillStrokeWidth=0.2;fillStrokeColor=#dddddd;" parent="1" vertex="1">
          <mxGeometry x="420" y="120" width="50" height="30" as="geometry" />
        </mxCell>
        <mxCell id="Vu7c68HnCX-WUGbhjU9a-8" value="" style="verticalLabelPosition=bottom;verticalAlign=top;html=1;shape=mxgraph.basic.patternFillRect;fillStyle=diag;step=5;fillStrokeWidth=0.2;fillStrokeColor=#dddddd;" parent="1" vertex="1">
          <mxGeometry x="240" y="80" width="50" height="30" as="geometry" />
        </mxCell>
        <mxCell id="Vu7c68HnCX-WUGbhjU9a-10" value="" style="verticalLabelPosition=bottom;verticalAlign=top;html=1;shape=mxgraph.basic.rect;fillColor2=none;strokeWidth=1;size=20;indent=5;" parent="1" vertex="1">
          <mxGeometry x="350" y="270" width="120" height="60" as="geometry" />
        </mxCell>
        <mxCell id="Vu7c68HnCX-WUGbhjU9a-11" value="" style="verticalLabelPosition=bottom;verticalAlign=top;html=1;shape=mxgraph.basic.patternFillRect;fillStyle=diag;step=5;fillStrokeWidth=0.2;fillStrokeColor=#dddddd;" parent="1" vertex="1">
          <mxGeometry x="430" y="80" width="50" height="30" as="geometry" />
        </mxCell>
      </root>
    </mxGraphModel>
  </diagram>
  <diagram id="VFGUICuaOImmgyup6JHA" name="BrushPipeline2D">
    <mxGraphModel dx="1038" dy="574" grid="1" gridSize="10" guides="1" tooltips="1" connect="1" arrows="1" fold="1" page="1" pageScale="1" pageWidth="827" pageHeight="1169" math="0" shadow="0">
      <root>
        <mxCell id="psuobKthaOf-5Xqrck-I-0" />
        <mxCell id="psuobKthaOf-5Xqrck-I-1" parent="psuobKthaOf-5Xqrck-I-0" />
        <mxCell id="psuobKthaOf-5Xqrck-I-5" style="edgeStyle=orthogonalEdgeStyle;rounded=0;orthogonalLoop=1;jettySize=auto;html=1;entryX=0.502;entryY=0.07;entryDx=0;entryDy=0;entryPerimeter=0;" edge="1" parent="psuobKthaOf-5Xqrck-I-1" source="psuobKthaOf-5Xqrck-I-3" target="psuobKthaOf-5Xqrck-I-4">
          <mxGeometry relative="1" as="geometry" />
        </mxCell>
        <mxCell id="psuobKthaOf-5Xqrck-I-3" value="&lt;div style=&quot;color: rgb(212 , 212 , 212) ; background-color: rgb(30 , 30 , 30) ; font-family: &amp;#34;consolas&amp;#34; , &amp;#34;courier new&amp;#34; , monospace ; font-size: 14px ; line-height: 19px&quot;&gt;&lt;span style=&quot;color: #9cdcfe&quot;&gt;BrushCutter&lt;/span&gt;&lt;/div&gt;" style="text;html=1;align=center;verticalAlign=middle;resizable=0;points=[];autosize=1;strokeColor=none;fillColor=none;" vertex="1" parent="psuobKthaOf-5Xqrck-I-1">
          <mxGeometry x="155" y="230" width="100" height="20" as="geometry" />
        </mxCell>
        <mxCell id="psuobKthaOf-5Xqrck-I-7" style="edgeStyle=orthogonalEdgeStyle;rounded=0;orthogonalLoop=1;jettySize=auto;html=1;" edge="1" parent="psuobKthaOf-5Xqrck-I-1" source="psuobKthaOf-5Xqrck-I-4" target="psuobKthaOf-5Xqrck-I-6">
          <mxGeometry relative="1" as="geometry" />
        </mxCell>
        <mxCell id="psuobKthaOf-5Xqrck-I-4" value="&lt;div style=&quot;color: rgb(212 , 212 , 212) ; background-color: rgb(30 , 30 , 30) ; font-family: &amp;#34;consolas&amp;#34; , &amp;#34;courier new&amp;#34; , monospace ; font-size: 14px ; line-height: 19px&quot;&gt;&lt;span style=&quot;color: #9cdcfe&quot;&gt;BrushWorldToSliceTransformer&lt;/span&gt;&lt;/div&gt;" style="text;html=1;align=center;verticalAlign=middle;resizable=0;points=[];autosize=1;strokeColor=none;fillColor=none;" vertex="1" parent="psuobKthaOf-5Xqrck-I-1">
          <mxGeometry x="90" y="280" width="230" height="20" as="geometry" />
        </mxCell>
        <mxCell id="psuobKthaOf-5Xqrck-I-9" style="edgeStyle=orthogonalEdgeStyle;rounded=0;orthogonalLoop=1;jettySize=auto;html=1;" edge="1" parent="psuobKthaOf-5Xqrck-I-1" source="psuobKthaOf-5Xqrck-I-6" target="psuobKthaOf-5Xqrck-I-8">
          <mxGeometry relative="1" as="geometry" />
        </mxCell>
        <mxCell id="psuobKthaOf-5Xqrck-I-6" value="&lt;div style=&quot;color: rgb(212 , 212 , 212) ; background-color: rgb(30 , 30 , 30) ; font-family: &amp;#34;consolas&amp;#34; , &amp;#34;courier new&amp;#34; , monospace ; font-size: 14px ; line-height: 19px&quot;&gt;&lt;span style=&quot;color: #9cdcfe&quot;&gt;BrushMapper&lt;/span&gt;&lt;/div&gt;" style="text;html=1;align=center;verticalAlign=middle;resizable=0;points=[];autosize=1;strokeColor=none;fillColor=none;" vertex="1" parent="psuobKthaOf-5Xqrck-I-1">
          <mxGeometry x="155" y="340" width="100" height="20" as="geometry" />
        </mxCell>
        <mxCell id="psuobKthaOf-5Xqrck-I-8" value="&lt;div style=&quot;color: rgb(212 , 212 , 212) ; background-color: rgb(30 , 30 , 30) ; font-family: &amp;#34;consolas&amp;#34; , &amp;#34;courier new&amp;#34; , monospace ; font-size: 14px ; line-height: 19px&quot;&gt;&lt;span style=&quot;color: #9cdcfe&quot;&gt;BrushActor&lt;/span&gt;&lt;/div&gt;" style="text;html=1;align=center;verticalAlign=middle;resizable=0;points=[];autosize=1;strokeColor=none;fillColor=none;" vertex="1" parent="psuobKthaOf-5Xqrck-I-1">
          <mxGeometry x="160" y="410" width="90" height="20" as="geometry" />
        </mxCell>
        <mxCell id="psuobKthaOf-5Xqrck-I-15" style="edgeStyle=orthogonalEdgeStyle;rounded=0;orthogonalLoop=1;jettySize=auto;html=1;entryX=0.5;entryY=0;entryDx=0;entryDy=0;entryPerimeter=0;" edge="1" parent="psuobKthaOf-5Xqrck-I-1" source="psuobKthaOf-5Xqrck-I-10" target="psuobKthaOf-5Xqrck-I-11">
          <mxGeometry relative="1" as="geometry" />
        </mxCell>
        <mxCell id="psuobKthaOf-5Xqrck-I-10" value="&lt;div style=&quot;color: rgb(212 , 212 , 212) ; background-color: rgb(30 , 30 , 30) ; font-family: &amp;#34;consolas&amp;#34; , &amp;#34;courier new&amp;#34; , monospace ; font-size: 14px ; line-height: 19px&quot;&gt;&lt;span style=&quot;color: #9cdcfe&quot;&gt;FeedbackCutter&lt;/span&gt;&lt;/div&gt;" style="text;html=1;align=center;verticalAlign=middle;resizable=0;points=[];autosize=1;strokeColor=none;fillColor=none;" vertex="1" parent="psuobKthaOf-5Xqrck-I-1">
          <mxGeometry x="525" y="80" width="120" height="20" as="geometry" />
        </mxCell>
        <mxCell id="psuobKthaOf-5Xqrck-I-16" style="edgeStyle=orthogonalEdgeStyle;rounded=0;orthogonalLoop=1;jettySize=auto;html=1;" edge="1" parent="psuobKthaOf-5Xqrck-I-1" source="psuobKthaOf-5Xqrck-I-11" target="psuobKthaOf-5Xqrck-I-12">
          <mxGeometry relative="1" as="geometry" />
        </mxCell>
        <mxCell id="psuobKthaOf-5Xqrck-I-11" value="&lt;div style=&quot;color: rgb(212 , 212 , 212) ; background-color: rgb(30 , 30 , 30) ; font-family: &amp;#34;consolas&amp;#34; , &amp;#34;courier new&amp;#34; , monospace ; font-size: 14px ; line-height: 19px&quot;&gt;&lt;span style=&quot;color: #9cdcfe&quot;&gt;FeedbackWorldToSliceTransformer&lt;/span&gt;&lt;/div&gt;" style="text;html=1;align=center;verticalAlign=middle;resizable=0;points=[];autosize=1;strokeColor=none;fillColor=none;" vertex="1" parent="psuobKthaOf-5Xqrck-I-1">
          <mxGeometry x="460" y="140" width="250" height="20" as="geometry" />
        </mxCell>
        <mxCell id="psuobKthaOf-5Xqrck-I-12" value="&lt;div style=&quot;color: rgb(212 , 212 , 212) ; background-color: rgb(30 , 30 , 30) ; font-family: &amp;#34;consolas&amp;#34; , &amp;#34;courier new&amp;#34; , monospace ; font-size: 14px ; line-height: 19px&quot;&gt;&lt;span style=&quot;color: #9cdcfe&quot;&gt;FeedbackMapper&lt;/span&gt;&lt;/div&gt;" style="text;html=1;align=center;verticalAlign=middle;resizable=0;points=[];autosize=1;strokeColor=none;fillColor=none;" vertex="1" parent="psuobKthaOf-5Xqrck-I-1">
          <mxGeometry x="525" y="210" width="120" height="20" as="geometry" />
        </mxCell>
        <mxCell id="psuobKthaOf-5Xqrck-I-13" value="&lt;div style=&quot;color: rgb(212 , 212 , 212) ; background-color: rgb(30 , 30 , 30) ; font-family: &amp;#34;consolas&amp;#34; , &amp;#34;courier new&amp;#34; , monospace ; font-size: 14px ; line-height: 19px&quot;&gt;&lt;span style=&quot;color: #4ec9b0&quot;&gt;BrushPipeline2D&lt;/span&gt;&lt;/div&gt;" style="text;html=1;align=center;verticalAlign=middle;resizable=0;points=[];autosize=1;strokeColor=none;fillColor=none;" vertex="1" parent="psuobKthaOf-5Xqrck-I-1">
          <mxGeometry y="10" width="130" height="20" as="geometry" />
        </mxCell>
        <mxCell id="AyxOQOM_vsJ7FQnCIUeu-1" style="edgeStyle=orthogonalEdgeStyle;rounded=0;orthogonalLoop=1;jettySize=auto;html=1;" edge="1" parent="psuobKthaOf-5Xqrck-I-1" source="AyxOQOM_vsJ7FQnCIUeu-0" target="psuobKthaOf-5Xqrck-I-3">
          <mxGeometry relative="1" as="geometry" />
        </mxCell>
        <mxCell id="AyxOQOM_vsJ7FQnCIUeu-0" value="&lt;div style=&quot;color: rgb(212 , 212 , 212) ; background-color: rgb(30 , 30 , 30) ; font-family: &amp;#34;consolas&amp;#34; , &amp;#34;courier new&amp;#34; , monospace ; font-size: 14px ; line-height: 19px&quot;&gt;&lt;span style=&quot;color: #9cdcfe&quot;&gt;WorldOriginToWorldTransformer&lt;/span&gt;&lt;/div&gt;" style="text;html=1;align=center;verticalAlign=middle;resizable=0;points=[];autosize=1;strokeColor=none;fillColor=none;" vertex="1" parent="psuobKthaOf-5Xqrck-I-1">
          <mxGeometry x="85" y="180" width="240" height="20" as="geometry" />
        </mxCell>
        <mxCell id="AyxOQOM_vsJ7FQnCIUeu-2" value="&lt;div style=&quot;color: rgb(212 , 212 , 212) ; background-color: rgb(30 , 30 , 30) ; font-family: &amp;#34;consolas&amp;#34; , &amp;#34;courier new&amp;#34; , monospace ; font-size: 14px ; line-height: 19px&quot;&gt;&lt;span style=&quot;color: #9cdcfe&quot;&gt;FeedbackGlyphFilter&lt;/span&gt;&lt;/div&gt;" style="text;html=1;align=center;verticalAlign=middle;resizable=0;points=[];autosize=1;strokeColor=none;fillColor=none;" vertex="1" parent="psuobKthaOf-5Xqrck-I-1">
          <mxGeometry x="505" y="30" width="160" height="20" as="geometry" />
        </mxCell>
        <mxCell id="AyxOQOM_vsJ7FQnCIUeu-4" style="edgeStyle=orthogonalEdgeStyle;rounded=0;orthogonalLoop=1;jettySize=auto;html=1;entryX=0.483;entryY=-0.03;entryDx=0;entryDy=0;entryPerimeter=0;" edge="1" parent="psuobKthaOf-5Xqrck-I-1" source="AyxOQOM_vsJ7FQnCIUeu-3" target="AyxOQOM_vsJ7FQnCIUeu-0">
          <mxGeometry relative="1" as="geometry" />
        </mxCell>
        <mxCell id="AyxOQOM_vsJ7FQnCIUeu-3" value="&lt;div style=&quot;color: rgb(212 , 212 , 212) ; background-color: rgb(30 , 30 , 30) ; font-family: &amp;#34;consolas&amp;#34; , &amp;#34;courier new&amp;#34; , monospace ; font-size: 14px ; line-height: 19px&quot;&gt;&lt;span style=&quot;color: #9cdcfe&quot;&gt;BrushCylinderSource&lt;/span&gt;&lt;/div&gt;" style="text;html=1;align=center;verticalAlign=middle;resizable=0;points=[];autosize=1;strokeColor=none;fillColor=none;" vertex="1" parent="psuobKthaOf-5Xqrck-I-1">
          <mxGeometry x="120" y="90" width="160" height="20" as="geometry" />
        </mxCell>
      </root>
    </mxGraphModel>
  </diagram>
  <diagram id="IpvbbqyVunPin4aqjZfV" name="BrushPipeline3D">
    <mxGraphModel dx="1038" dy="574" grid="1" gridSize="10" guides="1" tooltips="1" connect="1" arrows="1" fold="1" page="1" pageScale="1" pageWidth="827" pageHeight="1169" math="0" shadow="0">
      <root>
        <mxCell id="_3An6TJH8r7nM07LRVhA-0" />
        <mxCell id="_3An6TJH8r7nM07LRVhA-1" parent="_3An6TJH8r7nM07LRVhA-0" />
        <mxCell id="JfRTu8oGKVbJKTYKJ5x--5" style="edgeStyle=orthogonalEdgeStyle;rounded=0;orthogonalLoop=1;jettySize=auto;html=1;" edge="1" parent="_3An6TJH8r7nM07LRVhA-1" source="JfRTu8oGKVbJKTYKJ5x--0" target="JfRTu8oGKVbJKTYKJ5x--1">
          <mxGeometry relative="1" as="geometry" />
        </mxCell>
        <mxCell id="JfRTu8oGKVbJKTYKJ5x--0" value="&lt;div style=&quot;color: rgb(212 , 212 , 212) ; background-color: rgb(30 , 30 , 30) ; font-family: &amp;#34;consolas&amp;#34; , &amp;#34;courier new&amp;#34; , monospace ; font-size: 14px ; line-height: 19px&quot;&gt;&lt;span style=&quot;color: #9cdcfe&quot;&gt;BrushMapper&lt;/span&gt;&lt;/div&gt;" style="text;html=1;align=center;verticalAlign=middle;resizable=0;points=[];autosize=1;strokeColor=none;fillColor=none;" vertex="1" parent="_3An6TJH8r7nM07LRVhA-1">
          <mxGeometry x="40" y="40" width="100" height="20" as="geometry" />
        </mxCell>
        <mxCell id="JfRTu8oGKVbJKTYKJ5x--1" value="&lt;div style=&quot;color: rgb(212 , 212 , 212) ; background-color: rgb(30 , 30 , 30) ; font-family: &amp;#34;consolas&amp;#34; , &amp;#34;courier new&amp;#34; , monospace ; font-size: 14px ; line-height: 19px&quot;&gt;&lt;span style=&quot;color: #9cdcfe&quot;&gt;BrushActor&lt;/span&gt;&lt;/div&gt;" style="text;html=1;align=center;verticalAlign=middle;resizable=0;points=[];autosize=1;strokeColor=none;fillColor=none;" vertex="1" parent="_3An6TJH8r7nM07LRVhA-1">
          <mxGeometry x="45" y="110" width="90" height="20" as="geometry" />
        </mxCell>
        <mxCell id="JfRTu8oGKVbJKTYKJ5x--6" style="edgeStyle=orthogonalEdgeStyle;rounded=0;orthogonalLoop=1;jettySize=auto;html=1;" edge="1" parent="_3An6TJH8r7nM07LRVhA-1" source="JfRTu8oGKVbJKTYKJ5x--2" target="JfRTu8oGKVbJKTYKJ5x--4">
          <mxGeometry relative="1" as="geometry" />
        </mxCell>
        <mxCell id="JfRTu8oGKVbJKTYKJ5x--2" value="&lt;div style=&quot;color: rgb(212 , 212 , 212) ; background-color: rgb(30 , 30 , 30) ; font-family: &amp;#34;consolas&amp;#34; , &amp;#34;courier new&amp;#34; , monospace ; font-size: 14px ; line-height: 19px&quot;&gt;&lt;span style=&quot;color: #9cdcfe&quot;&gt;FeedbackMapper&lt;/span&gt;&lt;/div&gt;" style="text;html=1;align=center;verticalAlign=middle;resizable=0;points=[];autosize=1;strokeColor=none;fillColor=none;" vertex="1" parent="_3An6TJH8r7nM07LRVhA-1">
          <mxGeometry x="340" y="40" width="120" height="20" as="geometry" />
        </mxCell>
        <mxCell id="JfRTu8oGKVbJKTYKJ5x--4" value="&lt;div style=&quot;color: rgb(212 , 212 , 212) ; background-color: rgb(30 , 30 , 30) ; font-family: &amp;#34;consolas&amp;#34; , &amp;#34;courier new&amp;#34; , monospace ; font-size: 14px ; line-height: 19px&quot;&gt;&lt;span style=&quot;color: #9cdcfe&quot;&gt;FeedbackActor&lt;/span&gt;&lt;/div&gt;" style="text;html=1;align=center;verticalAlign=middle;resizable=0;points=[];autosize=1;strokeColor=none;fillColor=none;" vertex="1" parent="_3An6TJH8r7nM07LRVhA-1">
          <mxGeometry x="340" y="120" width="120" height="20" as="geometry" />
        </mxCell>
      </root>
    </mxGraphModel>
  </diagram>
</mxfile>
